<svg width="200" height="228" viewBox="0 0 386 442" fill="none" xmlns="http://www.w3.org/2000/svg">
  <path fill-rule="evenodd" clip-rule="evenodd" d="M193 21L368 121V321L193 421L18 321L18 121L193 21Z" fill="#2E2E2C" stroke="white" stroke-width="35"/>
  <path fill-rule="evenodd" clip-rule="evenodd" d="M193 21L368 121V321L193 421L18 321L18 121L193 21Z" fill="#2E2E2C"/>
  <mask id="mask0_0_8" style="mask-type:luminance" maskUnits="userSpaceOnUse" x="18" y="21" width="350" height="400">
    <path fill-rule="evenodd" clip-rule="evenodd" d="M193 21L368 121V321L193 421L18 321L18 121L193 21Z" fill="white"/>
  </mask>
  <g mask="url(#mask0_0_8)">
    <path fill-rule="evenodd" clip-rule="evenodd" d="M-1944 639.158H508.917V-1122H-1944V639.158Z" fill="#03DAC6"/>
    <path fill-rule="evenodd" clip-rule="evenodd" d="M37.8663 357.598C34.3884 382.446 10.5648 430.821 27.1445 477.715C43.7229 524.607 20.1849 540.604 20.1849 540.604L116.897 570.486L156.346 499.927L113.585 398.745L91.6029 328.721L69.0183 278.617H-11.0345L-21.4156 319.343L37.8663 357.598Z" fill="#EDE8D7"/>
    <mask id="mask1_0_8" style="mask-type:luminance" maskUnits="userSpaceOnUse" x="284" y="283" width="225" height="305">
      <path fill-rule="evenodd" clip-rule="evenodd" d="M284.925 283.779H508.526V587.69H284.925V283.779Z" fill="white"/>
    </mask>
    <g mask="url(#mask1_0_8)">
      <path fill-rule="evenodd" clip-rule="evenodd" d="M387.309 587.69C387.309 587.69 397.749 583.287 415.98 575.308C418.074 551.709 363.219 533.057 371.951 511.026C380.684 488.992 472.254 528.833 508.526 562.034C544.798 595.235 528.837 504.683 528.837 504.683L479.755 479.634L444.221 483.812L391.826 450.357L380.897 416.251L401.993 357.092L402.55 283.779L316.105 365.241L336.854 400.469L338.062 422.091L284.925 516.214L359.605 584.614L387.309 587.69Z" fill="#EDE8D7"/>
    </g>
    <mask id="mask2_0_8" style="mask-type:luminance" maskUnits="userSpaceOnUse" x="308" y="87" width="201" height="231">
      <path fill-rule="evenodd" clip-rule="evenodd" d="M308.112 87.5599H508.526V317.855H308.112V87.5599Z" fill="white"/>
    </mask>
    <g mask="url(#mask2_0_8)">
      <path fill-rule="evenodd" clip-rule="evenodd" d="M418.165 146.209C418.165 146.209 438.306 154.527 446.372 158.271C454.111 161.865 463.143 165.12 463.143 165.12L551.121 246.925L540.883 302.867H461.797L395.183 283.446L329.605 317.855L314.593 275.901L376.769 168.147L308.112 154.144L313.231 107.938L358.702 87.5599L380.897 129.708L418.165 146.209Z" fill="#EDE8D7"/>
    </g>
    <path fill-rule="evenodd" clip-rule="evenodd" d="M159.083 44.1765L182.645 23.8043C182.645 23.8043 198.033 33.4198 207.723 39.0961C218.76 45.5609 228.612 46.8678 232.288 40.01C236.444 32.2591 231.482 26.3998 214.552 15.2108C206.58 9.9436 205.526 9.66722 197.94 3.55985L213.406 -31.0981L269.797 -32.0095L309.618 21.7616L243.973 121.081L163.898 89.6722L159.083 44.1765Z" fill="#33333D"/>
    <path fill-rule="evenodd" clip-rule="evenodd" d="M-118.054 479.25C-118.054 479.25 -87.0402 498.922 -58.7803 481.745C-39.5805 470.076 -25.0793 448.375 -32.8967 420.546C-28.2435 392.93 -32.8391 324.863 -11.0351 303.296C0.928106 291.464 18.3865 287.924 32.6402 293.038C44.3694 297.247 55.5434 306.968 61.1758 314.107C67.1647 321.697 88.6979 314.005 111.698 320.464C136.602 327.459 155.594 337.941 155.594 337.941L143.073 263.16C143.073 263.16 84.7591 265.667 51.9172 234.641L-51.8293 267.002L-101.974 315.022L-110.277 406.58L-118.054 479.25Z" fill="#FFC4BC"/>
    <path fill-rule="evenodd" clip-rule="evenodd" d="M75.3551 344.734C89.9789 388.013 92.4777 473.921 123.615 503.201C154.751 532.481 126.389 503.201 126.389 503.201L162.602 462.314C162.602 462.314 144.212 463.22 142.295 449.134C140.38 435.047 160.991 423.965 160.991 423.965C160.991 423.965 143.738 409.458 134.356 380.107C124.364 348.845 131.499 337.111 131.499 337.111L92.8527 323.025L75.3551 344.734Z" fill="#FFC4BC"/>
    <path fill-rule="evenodd" clip-rule="evenodd" d="M227.014 426.694C228.283 439.422 202.083 460.362 202.083 460.362L288.378 448.161C288.378 448.161 265.327 440.018 245.693 419.62C232.864 406.292 245.693 400.469 245.693 400.469L227.014 426.694Z" fill="#FFC4BC"/>
    <path fill-rule="evenodd" clip-rule="evenodd" d="M293.672 391.907C293.672 391.907 297.278 401.301 306.522 402.517C315.766 403.731 330.092 397.7 331.731 404.478C336.125 422.643 312.911 432.351 312.911 432.351C312.911 432.351 338.312 436.549 348.288 402.517C358.264 368.485 347.087 347.152 337.505 346.293C327.922 345.435 293.672 391.907 293.672 391.907" fill="#FFC4BC"/>
    <path fill-rule="evenodd" clip-rule="evenodd" d="M236.309 256.188C230.137 299.437 232.578 322.6 237.909 330.683C244.718 341.006 254.494 355.283 263.695 366.767C269.52 374.035 274.32 375.332 281.729 376.841C294.218 379.382 316.105 348.956 316.105 348.956L306.205 221.544H253.501L236.309 256.188Z" fill="#FFC4BC"/>
    <path fill-rule="evenodd" clip-rule="evenodd" d="M-83.7327 104.97L-51.7387 20.972C-51.7387 20.972 -24.2914 -1.15434 2.2491 -21.8435C16.1364 -32.6714 28.5886 -39.135 39.0617 -43.0546C58.2762 -50.2454 72.8326 -47.6732 87.5409 -40.0145C95.2615 -35.9965 105.641 -31.4209 117.079 -30.3019C127.716 -29.2603 139.192 -30.8608 148.02 -31.0979C162.64 -31.4922 178.037 -28.7136 180.885 -12.5743C182.496 -3.45382 179.71 1.01001 182.921 7.66153C186.3 14.657 192.029 19.1589 194.965 23.7579C201.389 33.818 198.405 41.9129 190.751 48.9071C183.925 55.1447 170.616 50.5973 159.084 44.1767C132.726 29.5004 83.9159 56.2453 83.9159 56.2453L-86.9202 109.083L-83.7327 104.97Z" fill="#F6C0B8"/>
    <mask id="mask3_0_8" style="mask-type:luminance" maskUnits="userSpaceOnUse" x="324" y="-33" width="185" height="141">
      <path fill-rule="evenodd" clip-rule="evenodd" d="M324.141 -32.797H508.526V107.938H324.141V-32.797Z" fill="white"/>
    </mask>
    <g mask="url(#mask3_0_8)">
      <path fill-rule="evenodd" clip-rule="evenodd" d="M397.938 13.7796C405.97 43.4983 449.57 103.538 500.706 107.126C551.843 110.714 536.224 101.255 536.224 101.255L535.573 88.2091C535.573 88.2091 487.414 91.1436 464.31 71.248C446.252 55.6971 430.809 36.8235 419.731 15.8641C416.637 10.0086 412.311 0.347583 410.275 -5.01786C416.149 -32.8425 391.745 -32.797 391.745 -32.797L344.237 -15.7635L324.141 20.834L379.055 23.9553L397.938 13.7796Z" fill="#F6C0B8"/>
    </g>
    <path fill-rule="evenodd" clip-rule="evenodd" d="M220.031 388.355C220.031 388.355 202.367 364.013 196.328 367.026C188.91 370.727 192.515 379.621 194.659 389.55C211.203 398.054 220.031 388.355 220.031 388.355" fill="#FFC4BC"/>
    <path fill-rule="evenodd" clip-rule="evenodd" d="M159.393 43.9366L74.2842 124.754L120.178 181.136C120.178 181.136 135.031 177.806 127.468 179.566C119.907 181.327 120.587 190.221 121.939 195.661C123.189 200.701 125.13 208.252 131.115 207.632C134.257 216.735 149.857 226.097 122.692 226.097C104.698 226.097 90.56 228.323 74.2842 219.127C65.9876 214.439 56.0281 208.226 49.0636 203.319C28.4349 188.784 12.7081 198.406 12.7081 198.406C12.7081 198.406 9.23509 171.996 -59.3925 183.87C-128.02 195.744 -123.934 117.129 -91.2553 88.468C-58.5751 59.8069 -25.8949 79.0503 -5.47082 46.7041C14.9545 14.3579 58.4129 -25.136 110.135 10.6729C149.759 38.1056 159.393 43.9366 159.393 43.9366" fill="#FF0166"/>
    <path fill-rule="evenodd" clip-rule="evenodd" d="M288.379 227.858C288.379 227.858 303.988 143.639 363.607 170.358C405.857 189.295 363.607 257.813 363.607 257.813L288.379 227.858Z" fill="#FF0166"/>
    <path fill-rule="evenodd" clip-rule="evenodd" d="M341.502 121.549C351.752 124.485 349.534 141.1 336.913 137.938C324.292 134.775 329.455 118.098 341.502 121.549" fill="#FF0166"/>
    <path fill-rule="evenodd" clip-rule="evenodd" d="M-32.8963 420.546L37.8661 357.598C37.8661 357.598 41.2043 332.157 21.2901 316.891C1.3746 301.626 -27.6487 294.334 -47.438 314.543C-68.1341 335.678 -59.3044 358.343 -46.7284 386.494C-34.1304 414.696 -32.8963 420.546 -32.8963 420.546" fill="#FF0166"/>
    <path fill-rule="evenodd" clip-rule="evenodd" d="M232.922 144.515L245.694 127.473C245.694 127.473 275.877 123.774 285.44 152.973C291.277 170.791 280.522 186.768 265.341 189.813C247.457 202.707 238.384 188.475 229.065 184.229L237.157 164.348C237.157 164.348 247.324 173.153 254.068 172.492C257.368 172.17 260.95 167.954 259.919 162.443C257.179 147.769 232.922 144.515 232.922 144.515" fill="#FF0166"/>
    <path fill-rule="evenodd" clip-rule="evenodd" d="M-142.616 32.1029V-31.0982C-142.616 -31.0982 -92.5596 -41.0233 -48.7348 -73.6434C-2.63668 -107.955 10.1415 -122.593 10.1415 -122.593C10.1415 -122.593 4.66602 -144.551 5.1219 -158.276C5.1219 -158.276 10.769 -137.733 28.5901 -137.733C41.0374 -137.733 45.285 -148.1 45.285 -158.276C45.285 -168.451 91.8377 -158.276 91.8377 -158.276C91.8377 -158.276 99.8145 -139.121 120.136 -142.721C133.78 -145.14 146.093 -151.42 157.848 -156.832C170.322 -162.575 184.446 -169.322 198.473 -161.866C210.833 -155.296 213.157 -142.395 214.13 -137.042C217.554 -118.24 199.996 -92.7922 164.605 -75.5952C121.047 -54.4295 85.2336 -61.6055 63.8904 -85.0093C63.8904 -85.0093 -29.4725 2.57337 -64.3819 16.4181C-99.29 30.2653 -117.376 39.9509 -142.616 32.1029" fill="#423D89"/>
    <path fill-rule="evenodd" clip-rule="evenodd" d="M-90.0815 338.515L-139.253 341.918C-139.253 341.918 -124.562 287.038 -89.0595 265.271C-71.3511 254.415 -59.1734 242.079 -36.3229 248.825C-16.6157 244.889 7.26055 238.706 15.3807 223.813C15.3807 223.813 31.926 214.376 51.9175 234.642C51.9175 234.642 50.7398 252.601 29.4591 261.67C-7.51275 277.43 -43.6685 268.133 -73.546 301.655C-86.0325 315.663 -90.0815 338.515 -90.0815 338.515" fill="#423D89"/>
    <path fill-rule="evenodd" clip-rule="evenodd" d="M61.1758 314.107C61.1758 314.107 68.0447 321.742 75.3547 344.734C75.3547 344.734 96.3817 328.15 112.582 336.443C128.781 344.734 129.302 363.744 134.356 380.106C134.356 380.106 140.883 364.091 155.594 337.94C155.594 337.94 151.719 314.252 122.427 304.857C85.829 293.117 61.1758 314.107 61.1758 314.107" fill="#423D89"/>
    <path fill-rule="evenodd" clip-rule="evenodd" d="M162.64 225.373C173.489 228.123 199.219 224.201 198.69 193.148L143.073 204.572C143.073 204.572 143.342 220.48 162.64 225.373" fill="#FFC4BC"/>
    <path fill-rule="evenodd" clip-rule="evenodd" d="M230.137 221.619L236.309 256.189C236.309 256.189 254.067 248.057 276.867 221.619L261.372 211.467L249.924 199.304C249.924 199.304 232.943 203.196 230.137 221.619" fill="#423D89"/>
    <path fill-rule="evenodd" clip-rule="evenodd" d="M90.73 119.382C90.73 119.382 133.074 84.2952 166.284 99.3179C183.74 107.215 232.921 144.515 232.921 144.515L238.385 154.169C238.385 154.169 244.194 155.947 246.739 157.182C254.582 160.989 258.387 168.87 256.68 170.812C251.686 176.494 237.397 169.188 237.397 169.188L229.065 184.229L211.621 177.536C211.621 177.536 209.859 165.752 193.106 169.286L156.37 152.201L139.8 180.286L90.73 147.905L74.2839 124.753L90.73 119.382Z" fill="#423D89"/>
    <path fill-rule="evenodd" clip-rule="evenodd" d="M245.694 127.473L322.337 20.6382L349.125 23.1502L344.074 30.9367L283.869 156.243C283.869 156.243 281.728 146.848 271.542 138.336C263.082 131.267 253.957 127.671 245.694 127.473" fill="#33333D"/>
    <path fill-rule="evenodd" clip-rule="evenodd" d="M369.096 15.778C369.096 30.2652 355.216 40.0109 340.763 40.0109C326.309 40.0109 309.618 26.8639 309.618 12.3767C309.618 -2.11048 326.113 -15.2833 340.567 -15.2833C344.286 -15.2833 351.03 -14.8939 350.635 -10.5185C343.366 -3.15213 325.215 9.96299 335.695 18.3723C344.649 25.5594 351.726 14.8985 364.468 2.66166C368.747 4.68476 369.096 11.6163 369.096 15.778" fill="#33333D"/>
    <path fill-rule="evenodd" clip-rule="evenodd" d="M123.615 503.201C123.615 503.201 133.523 485.461 154.294 468.491C171.245 454.643 195.639 443.123 227.372 438.548C286.605 430.008 307.439 451.24 348.288 402.517C348.288 402.517 370.755 411.933 344.203 445.918C330.926 462.91 323.88 478.469 320.153 489.78C316.425 501.092 324.022 512.135 335.501 518.233C365.836 534.347 420.431 565.246 415.69 576.532C409.154 592.092 398.533 582.674 391.998 594.548C388.385 601.112 372.804 598.806 350.209 591.857C331.926 586.233 269.899 589.816 233.589 584.97C197.949 580.214 179.952 558.069 179.952 558.069L123.615 503.201Z" fill="#423D89"/>
    <mask id="mask4_0_8" style="mask-type:luminance" maskUnits="userSpaceOnUse" x="293" y="223" width="216" height="169">
      <path fill-rule="evenodd" clip-rule="evenodd" d="M293.672 223.39H508.526V391.906H293.672V223.39Z" fill="white"/>
    </mask>
    <g mask="url(#mask4_0_8)">
      <path fill-rule="evenodd" clip-rule="evenodd" d="M401.993 294.018C412.557 284.573 531.333 274.311 530.686 268.7C530.387 266.103 511.853 225.824 476.698 223.779C461.693 222.906 433.388 219.702 382.385 267.117C362.582 285.525 356.107 289.845 338.646 305.435C299.723 340.189 293.672 346.294 293.672 346.294V391.906C293.672 391.906 323.402 367.891 350.635 342.326C371.536 322.705 385.363 308.886 401.993 294.018" fill="#423D89"/>
    </g>
    <path fill-rule="evenodd" clip-rule="evenodd" d="M348.288 402.517L394.885 377.207C394.885 377.207 388.282 452.74 464.448 481.816C464.448 481.816 463.38 513.376 420.097 503.201C388.716 495.825 363.549 462.54 353.009 432.374C360.059 414.492 353.673 406.871 348.288 402.517" fill="#33333D"/>
    <path fill-rule="evenodd" clip-rule="evenodd" d="M139.8 180.286C139.8 180.286 137.708 165.687 150.357 155.197C155.071 151.289 182.847 142.721 193.106 169.286L139.8 180.286Z" fill="#FFC4BC"/>
    <path fill-rule="evenodd" clip-rule="evenodd" d="M261.373 211.467C261.373 211.467 269.662 202.053 265.341 189.813C265.341 189.813 251.331 192.774 237.866 187.608C224.404 182.44 211.621 177.535 211.621 177.535C211.621 177.535 215.024 191.318 198.691 193.148C198.691 193.148 197.191 217.02 179.337 224.446C179.337 224.446 213.969 215.375 230.137 221.62C230.137 221.62 242.434 220.183 252.043 205.01L261.373 211.467Z" fill="#33333D"/>
    <path fill-rule="evenodd" clip-rule="evenodd" d="M363.607 257.813L382.385 267.116C382.385 267.116 407.821 226.876 416.718 205.697C425.617 184.517 409.23 183.078 388.802 169.31C369.26 156.139 350.635 146.209 350.635 146.209C350.635 146.209 341.333 152.292 333.051 150.667C323.902 148.872 311.839 138.585 319.428 120.681C327.964 100.541 347.749 105.641 355.294 114.996C360.527 121.485 359.464 131.161 359.464 131.161L434.115 175.977L446.371 158.272C446.371 158.272 399.938 135.071 390.26 95.578C379.54 51.8315 397.939 13.7796 397.939 13.7796C397.939 13.7796 386.152 -19.6586 364.467 2.6618C364.467 2.6618 377.815 33.8091 339.724 39.9853C339.724 39.9853 288.379 114.598 271.542 138.336C282.457 147.082 283.87 156.243 283.87 156.243C283.87 156.243 287.578 169.019 280.962 180.286C286.029 189.084 288.379 202.386 276.867 221.619L288.379 227.858C288.379 227.858 313.882 157.225 357.471 175.703C392.523 190.563 363.607 257.813 363.607 257.813" fill="#423D89"/>
    <mask id="mask5_0_8" style="mask-type:luminance" maskUnits="userSpaceOnUse" x="74" y="-161" width="435" height="306">
      <path fill-rule="evenodd" clip-rule="evenodd" d="M74.2839 -160.899H508.526V144.515H74.2839V-160.899Z" fill="white"/>
    </mask>
    <g mask="url(#mask5_0_8)">
      <path fill-rule="evenodd" clip-rule="evenodd" d="M410.276 -5.01762C410.276 -5.01762 423.728 -32.8484 452.205 -61.2663C477.987 -86.9941 542.19 -94.8457 542.19 -94.8457L459.922 -120.989C459.922 -120.989 408.023 -56.1232 400.851 -47.3601C393.677 -38.5971 381.696 -32.486 370.914 -37.4559C360.134 -42.4258 355.157 -45.0889 355.157 -45.0889C355.157 -45.0889 342.794 -39.9925 334.118 -47.3048C329.207 -51.4444 326.511 -59.4827 328.071 -65.3542C329.647 -71.2884 334.232 -76.7128 341.197 -78.6204C345.719 -79.8599 354.259 -79.6707 359.523 -74.5227C364.756 -69.4054 365.304 -59.468 365.304 -59.468C365.304 -59.468 372.532 -56.1158 376.425 -54.1652C380.317 -52.2133 385.599 -55.2277 389.213 -59.5724C392.83 -63.9183 443.679 -127.09 443.679 -127.09L360.855 -160.899L272.122 -71.6999L232.289 -31.4505C232.289 -31.4505 269.095 -8.48771 283.63 1.00867C298.164 10.5063 296.605 18.4206 289.234 27.3814C281.864 36.341 232.289 96.6027 232.289 96.6027L159.393 43.9371L74.2839 124.753L94.9346 141.823C94.9346 141.823 141.469 90.0064 169.082 106.464C193.609 121.081 232.921 144.515 232.921 144.515L319.472 29.0225C319.472 29.0225 305.113 4.0599 326.922 -8.48034C342.396 -17.3785 350.635 -10.5194 350.635 -10.5194C350.635 -10.5194 363.148 -25.084 383.987 -23.9674C402.931 -22.9528 410.276 -5.01762 410.276 -5.01762" fill="#423D89"/>
    </g>
    <path fill-rule="evenodd" clip-rule="evenodd" d="M227.015 426.694C246.412 422.305 272.222 412.74 293.673 391.907V346.293C293.673 346.293 248.146 386.251 194.659 389.55C194.659 389.55 198.394 398.916 207.046 408.836C212.145 414.681 216.663 419.231 227.015 426.694" fill="#33333D"/>
    <path fill-rule="evenodd" clip-rule="evenodd" d="M288.379 227.858C288.379 227.858 279.101 253.565 288.379 272.93C300.477 298.184 263.101 310.679 293.672 346.293L338.646 305.435C338.646 305.435 338.377 275.669 363.607 257.813L288.379 227.858Z" fill="#33333D"/>
    <path fill-rule="evenodd" clip-rule="evenodd" d="M74.2841 219.127V124.754L105.088 150.863L139.8 180.286C139.8 180.286 128.386 184.835 130.203 195.096C132.018 205.357 143.073 204.572 143.073 204.572C143.073 204.572 144.121 221.865 162.641 225.373C162.641 225.373 131.7 249.315 74.2841 219.127" fill="#33333D"/>
  </g>
</svg>